<?xml version="1.0" encoding="UTF-8" standalone="no"?><svg xmlns="http://www.w3.org/2000/svg" xmlns:xlink="http://www.w3.org/1999/xlink" style="isolation:isolate" viewBox="0 0 100 100" width="100pt" height="100pt"><defs><clipPath id="_clipPath_iavNEvN5hczFHFEP1lVjuwQHmXGFAZb0"><rect width="100" height="100"/></clipPath></defs><g clip-path="url(#_clipPath_iavNEvN5hczFHFEP1lVjuwQHmXGFAZb0)"><rect width="100" height="100" style="fill:rgb(0,0,0)" fill-opacity="0"/><path d=" M 67.37 7.644 L 92.326 32.893 C 102.558 43.242 102.558 59.88 92.326 70.229 L 70.455 92.354 C 68.639 94.189 65.671 94.209 63.835 92.393 C 62 90.577 61.98 87.609 63.796 85.773 L 85.647 63.648 C 92.267 56.951 92.267 46.191 85.647 39.493 L 60.711 14.244 C 58.895 12.408 58.914 9.44 60.75 7.624 C 62.585 5.808 65.554 5.828 67.37 7.663 L 67.37 7.644 Z " fill="rgb(248,97,38)"/><path d=" M 0 44.824 L 0 15.63 C 0 10.456 4.198 6.257 9.373 6.257 L 38.567 6.257 C 41.886 6.257 45.069 7.566 47.413 9.909 L 80.219 42.715 C 85.101 47.597 85.101 55.505 80.219 60.387 L 54.15 86.456 C 49.268 91.338 41.359 91.338 36.477 86.456 L 3.671 53.65 C 1.308 51.307 0 48.144 0 44.824 Z " fill="rgb(26,211,187)"/><path d=" M 28.12 28.128 C 28.12 24.677 25.322 21.879 21.871 21.879 C 18.42 21.879 15.622 24.677 15.622 28.128 C 15.622 31.579 18.42 34.377 21.871 34.377 C 25.322 34.377 28.12 31.579 28.12 28.128 Z " fill="rgb(26,111,102)"/></g></svg>