<?xml version="1.0" encoding="UTF-8" standalone="no"?><svg xmlns="http://www.w3.org/2000/svg" xmlns:xlink="http://www.w3.org/1999/xlink" style="isolation:isolate" viewBox="0 0 100 100" width="100pt" height="100pt"><defs><clipPath id="_clipPath_RKkbAGGYU8g1wPtjSrrwtt8t1dbQ2Jav"><rect width="100" height="100"/></clipPath></defs><g clip-path="url(#_clipPath_RKkbAGGYU8g1wPtjSrrwtt8t1dbQ2Jav)"><rect width="100" height="100" style="fill:rgb(0,0,0)" fill-opacity="0"/><path d=" M 48.515 30.446 C 49.645 29.443 50.09 27.867 49.501 26.467 C 49.135 25.623 48.737 24.796 48.292 24 L 47.798 23.141 C 47.321 22.345 46.796 21.565 46.239 20.817 C 45.332 19.607 43.74 19.21 42.308 19.687 L 37.82 21.167 C 36.117 19.767 34.159 18.621 32.058 17.841 L 31.088 13.225 C 30.785 11.745 29.639 10.568 28.143 10.393 C 27.093 10.249 26.027 10.186 24.944 10.186 L 24.833 10.186 C 23.751 10.186 22.684 10.249 21.634 10.377 C 20.138 10.552 18.992 11.745 18.69 13.21 L 17.719 17.841 C 15.602 18.637 13.661 19.767 11.958 21.167 L 7.454 19.703 C 6.021 19.225 4.43 19.623 3.523 20.833 C 2.966 21.581 2.44 22.361 1.947 23.156 L 1.47 24 C 1.024 24.796 0.626 25.623 0.26 26.483 C -0.329 27.867 0.117 29.443 1.247 30.461 L 4.78 33.613 C 4.605 34.679 4.509 35.793 4.509 36.923 C 4.509 38.053 4.605 39.167 4.78 40.249 L 1.247 43.4 C 0.117 44.403 -0.329 45.979 0.26 47.379 C 0.626 48.223 1.024 49.05 1.47 49.862 L 1.947 50.69 C 2.425 51.501 2.95 52.265 3.523 53.013 C 4.43 54.223 6.021 54.621 7.454 54.143 L 11.942 52.663 C 13.645 54.064 15.602 55.209 17.703 55.989 L 18.674 60.621 C 18.976 62.101 20.122 63.278 21.618 63.453 C 22.684 63.581 23.767 63.644 24.865 63.644 C 25.963 63.644 27.045 63.581 28.112 63.453 C 29.608 63.278 30.753 62.085 31.056 60.621 L 32.027 55.989 C 34.143 55.194 36.085 54.064 37.788 52.663 L 42.276 54.143 C 43.708 54.621 45.3 54.223 46.207 53.013 C 46.764 52.265 47.289 51.501 47.767 50.69 L 48.26 49.83 C 48.706 49.034 49.104 48.207 49.47 47.363 C 50.058 45.979 49.613 44.403 48.483 43.385 L 44.95 40.233 C 45.125 39.151 45.22 38.037 45.22 36.907 C 45.22 35.777 45.125 34.663 44.95 33.581 L 48.483 30.43 L 48.515 30.446 Z  M 17.242 36.923 C 17.242 32.704 20.662 29.284 24.881 29.284 C 29.1 29.284 32.52 32.704 32.52 36.923 C 32.52 41.142 29.1 44.562 24.881 44.562 C 20.662 44.562 17.242 41.142 17.242 36.923 Z " fill-rule="evenodd" fill="rgb(251,185,69)"/><path d=" M 79.74 88.567 C 80.743 89.697 82.318 90.143 83.719 89.554 C 84.562 89.188 85.39 88.79 86.186 88.345 L 87.045 87.851 C 87.841 87.374 88.621 86.849 89.369 86.292 C 90.578 85.384 90.976 83.793 90.499 82.361 L 89.019 77.873 C 90.419 76.17 91.565 74.212 92.345 72.111 L 96.976 71.14 C 98.456 70.838 99.634 69.692 99.809 68.196 C 99.936 67.13 100 66.048 100 64.949 C 100 63.851 99.936 62.769 99.809 61.703 C 99.634 60.207 98.44 59.061 96.976 58.759 L 92.345 57.772 C 91.549 55.655 90.419 53.713 89.019 52.011 L 90.499 47.522 C 90.976 46.09 90.578 44.499 89.369 43.591 C 88.621 43.034 87.841 42.509 87.045 42.016 L 86.202 41.538 C 85.406 41.093 84.578 40.695 83.719 40.329 C 82.334 39.74 80.759 40.186 79.74 41.316 L 76.589 44.849 C 75.507 44.674 74.393 44.578 73.263 44.578 C 72.133 44.578 71.019 44.674 69.936 44.849 L 66.785 41.316 C 65.783 40.186 64.207 39.74 62.806 40.329 C 61.963 40.695 61.135 41.093 60.324 41.538 L 59.496 42.016 C 58.684 42.493 57.92 43.018 57.172 43.591 C 55.963 44.499 55.565 46.09 56.043 47.522 L 57.523 52.011 C 56.122 53.713 54.976 55.671 54.196 57.772 L 49.565 58.727 C 48.085 59.029 46.907 60.175 46.732 61.671 C 46.605 62.737 46.541 63.82 46.541 64.918 C 46.541 66.016 46.605 67.098 46.732 68.164 C 46.907 69.66 48.101 70.806 49.565 71.109 L 54.196 72.079 C 54.992 74.196 56.122 76.138 57.523 77.841 L 56.043 82.329 C 55.565 83.761 55.963 85.353 57.172 86.26 C 57.92 86.817 58.684 87.342 59.496 87.819 L 60.356 88.313 C 61.151 88.758 61.979 89.156 62.822 89.522 C 64.207 90.111 65.783 89.666 66.801 88.536 L 69.952 85.003 C 71.035 85.178 72.149 85.273 73.279 85.273 C 74.409 85.273 75.523 85.178 76.605 85.003 L 79.756 88.536 L 79.74 88.567 Z  M 73.263 57.294 C 77.482 57.294 80.902 60.715 80.902 64.934 C 80.902 69.153 77.482 72.573 73.263 72.573 C 69.044 72.573 65.623 69.153 65.623 64.934 C 65.623 60.715 69.044 57.294 73.263 57.294 Z " fill-rule="evenodd" fill="rgb(152,81,132)"/></g></svg>