<?xml version="1.0" encoding="UTF-8" standalone="no"?><svg xmlns="http://www.w3.org/2000/svg" xmlns:xlink="http://www.w3.org/1999/xlink" style="isolation:isolate" viewBox="0 0 100 100" width="100pt" height="100pt"><defs><clipPath id="_clipPath_mUv1SFjwWwFOZze3dcm77z9amoQoXs4w"><rect width="100" height="100"/></clipPath></defs><g clip-path="url(#_clipPath_mUv1SFjwWwFOZze3dcm77z9amoQoXs4w)"><rect width="100" height="100" style="fill:rgb(0,0,0)" fill-opacity="0"/><g><path d=" M 80.952 100 C 91.472 100 100 91.472 100 80.952 L 100 9.524 L 19.048 9.524 C 13.788 9.524 9.524 13.788 9.524 19.048 L 9.524 100 L 80.952 100 Z " fill-rule="evenodd" fill="rgb(80,183,249)"/><path d=" M 80.952 90.476 C 86.212 90.476 90.476 86.212 90.476 80.952 L 90.476 0 L 19.048 0 C 8.528 0 0 8.528 0 19.048 L 0 90.476 L 80.952 90.476 Z " fill-rule="evenodd" fill="rgb(150,78,132)"/><path d=" M 90.476 80.952 C 90.476 86.212 86.212 90.476 80.952 90.476 L 9.524 90.476 L 9.524 19.048 C 9.524 13.788 13.788 9.524 19.048 9.524 L 90.476 9.524 L 90.476 80.952 Z " fill-rule="evenodd" fill="rgb(40,60,150)"/><path d=" M 47.619 57.143 C 35.784 57.143 26.19 66.737 26.19 78.571 L 50 78.571 C 61.835 78.571 71.429 68.978 71.429 57.143 L 47.619 57.143 Z " fill="rgb(255,255,255)"/><circle vector-effect="non-scaling-stroke" cx="47.6190476190476" cy="35.714285714285715" r="14.285714285714285" fill="rgb(255,255,255)"/></g></g></svg>